<svg id="Layer_1" data-name="Layer 1" xmlns="http://www.w3.org/2000/svg" viewBox="0 0 114.85 46.96"><path d="M100.73,8.21c.27.07.45.19.5.43s.25.51.12.81a.21.21,0,0,0,0,.13,3.6,3.6,0,0,1,.14,1.08,3.79,3.79,0,0,1-.22,1.45,2.91,2.91,0,0,0-.24,1.14c0,1.15,0,2.3,0,3.45a3.69,3.69,0,0,0,.47,1.8,2.39,2.39,0,0,0,1.35,1.05.87.87,0,0,0,.65-.07,16.22,16.22,0,0,0,2.55-1.63,7.72,7.72,0,0,0,2.3-2.68c.54-1.05,1-2.13,1.53-3.21a3.55,3.55,0,0,0,.2-1.29,10,10,0,0,1,.38-1.87.57.57,0,0,1,.57-.51c.06,0,.12,0,.19-.06a.34.34,0,0,1,.45.31,14.11,14.11,0,0,1,0,2.6c0,.34,0,.69,0,1a13.86,13.86,0,0,1,0,2.41c-.08.89-.12,1.78-.22,2.66-.17,1.4-.09,2.8-.14,4.2,0,1-.06,2-.13,3.05s-.19,1.76-.3,2.64-.2,1.5-.34,2.25c-.19,1.05-.41,2.09-.63,3.13a42.8,42.8,0,0,1-1.29,4.59c-.27.8-.55,1.61-.88,2.39a11.11,11.11,0,0,1-1.54,2.67,7.13,7.13,0,0,1-2.61,2.11,4.31,4.31,0,0,1-2.63.3,4,4,0,0,1-.69-.15,3.94,3.94,0,0,1-1-.5,10.09,10.09,0,0,1-1.19-1.07,5.29,5.29,0,0,1-1-1.57c-.28-.62-.53-1.25-.78-1.89a3.79,3.79,0,0,1-.18-.81.55.55,0,0,1,.7-.57.83.83,0,0,1,.53.38c.2.35.39.7.58,1.06a6.76,6.76,0,0,0,2.3,2.62,2.57,2.57,0,0,0,2.77.13,6.53,6.53,0,0,0,2.5-2.42,16.41,16.41,0,0,0,1.15-2.39,28.63,28.63,0,0,0,1.26-4c.22-1,.46-1.9.64-2.85s.35-2.1.5-3.15q.15-1.07.24-2.16c.05-.53.05-1.07.09-1.6.08-.81,0-1.62,0-2.43,0-.37,0-.74,0-1.12s0-.76,0-1.14c0-.63,0-1.26.08-1.9,0-.18,0-.35,0-.58-.15.24-.29.45-.41.66a8.59,8.59,0,0,1-2.48,2.75,11.09,11.09,0,0,1-2.36,1.47,6.15,6.15,0,0,1-.85.31,2.36,2.36,0,0,1-1.15-.11c-.19-.05-.36-.13-.54-.19a1.6,1.6,0,0,1-.74-.62c-.35-.48-.68-1-1-1.47a4.23,4.23,0,0,1-.54-1.54,4.89,4.89,0,0,1-.12-.83c0-1-.1-2-.17-3a14,14,0,0,1,0-2.05,5.29,5.29,0,0,1,.68-2c.21-.39.35-.82.53-1.23Z"/><path d="M73.92,8.92c0-.19.16-.21.33-.14.46.18,1,.23,1.4.45a1.47,1.47,0,0,1,.67.68,2.59,2.59,0,0,1,.13,2c-.19.66-.33,1.34-.47,2a2.74,2.74,0,0,1-1,1.5,8,8,0,0,1-3.75,1.79c-1.13.23-2.27.41-3.39.68a11.29,11.29,0,0,1-2.52.31,8.16,8.16,0,0,1-1.3-.12.45.45,0,0,1-.27-.22c-.13-.26-.23-.53-.34-.8,0-.07-.05-.14-.1-.28l-.11.3c-.12.47-.24,1-.38,1.43A2.51,2.51,0,0,0,63,19.92a6.21,6.21,0,0,0,.2.61,3.5,3.5,0,0,0,1,1.48,5.65,5.65,0,0,0,2.15,1.27,1.09,1.09,0,0,0,.26,0c.57,0,1.14,0,1.71,0s1.39,0,2.08-.07a12.57,12.57,0,0,0,1.39-.2,14,14,0,0,0,2.79-1,16.84,16.84,0,0,1,1.92-.79,1.47,1.47,0,0,1,1.37.19.21.21,0,0,1,.1.25c-.11.31-.19.64-.33.94a1.19,1.19,0,0,1-.37.37,3.92,3.92,0,0,1-.64.42c-.76.38-1.53.74-2.31,1.09a12.14,12.14,0,0,1-2.63.88,14.46,14.46,0,0,1-1.87.21c-.89.07-1.79.1-2.68.17a3.25,3.25,0,0,1-1-.1,5.75,5.75,0,0,1-2.66-1.34,3.17,3.17,0,0,1-.63-.9,5.44,5.44,0,0,0-.51-.83,3.88,3.88,0,0,1-.9-2.13,9.94,9.94,0,0,1,.32-4.06,11.36,11.36,0,0,1,.85-2.08,2.42,2.42,0,0,1,.25-.31c0-.05.11-.08.15-.14a3.46,3.46,0,0,1,.93-.9c1-.8,2-1.56,3-2.34a.91.91,0,0,1,.16-.11,15.66,15.66,0,0,1,3.6-1.47c.15,0,.31,0,.47-.08s.36.05.43-.19l.59-.11a2.57,2.57,0,0,1,1.29.08A4.63,4.63,0,0,0,73.92,8.92Zm-9.53,6.15a.54.54,0,0,0,.16,0A12.29,12.29,0,0,0,67.39,15c.8-.12,1.59-.26,2.39-.37a14.62,14.62,0,0,0,2.37-.47A6.62,6.62,0,0,0,74.37,13a3.22,3.22,0,0,0,.73-.7,1.55,1.55,0,0,0-.17-.13c-.37-.18-.74-.37-1.13-.52a8,8,0,0,0-1.74-.47,4.07,4.07,0,0,0-2,.18,11,11,0,0,0-3.52,1.78C65.8,13.73,65.12,14.39,64.39,15.07Z"/><path d="M12.8,16.63c0,.37.09.72.14,1.06a7.44,7.44,0,0,0,.52,1.66,41.38,41.38,0,0,0,1.95,4.09,13.4,13.4,0,0,0,1.73,2.43c.25.29.51.57.77.84a.47.47,0,0,1,.09.55c-.1.21-.19.42-.28.63a.75.75,0,0,1-.07.12l-.5.61c-.22-.21-.47-.43-.69-.68a16.72,16.72,0,0,1-1.87-2.41c-.31-.51-.6-1-.91-1.53s-.46-.69-.67-1a8.1,8.1,0,0,1-.39-.78L12,20.76c-.15.32-.28.59-.42.86a18.45,18.45,0,0,1-2,3.29,7.09,7.09,0,0,1-1.81,1.64c-.45.28-.86.65-1.29,1A5.66,5.66,0,0,1,4,28.65a3,3,0,0,1-1.12,0,1.93,1.93,0,0,1-1.25-.9,4.48,4.48,0,0,1-.35-.65c-.28-.66-.57-1.31-.8-2A8.33,8.33,0,0,1,.16,20.7a9,9,0,0,1,1.18-3.12,17.17,17.17,0,0,1,1.1-1.48c.65-.79,1.3-1.6,2-2.34a5.89,5.89,0,0,1,3-1.74c.31-.07.62-.09.93-.13a7,7,0,0,1,1.94.06,2.48,2.48,0,0,1,2,1.35c.21.39.44.76.63,1.15a6.63,6.63,0,0,1,.33.88A1.12,1.12,0,0,1,13,16.42ZM7.88,14.81c-.07,0-.08.07-.1.07L7.29,15a4.57,4.57,0,0,0-2.58,1.35c-.49.48-.93,1-1.38,1.55a5.84,5.84,0,0,0-.42.56A11.52,11.52,0,0,0,1.56,20.5a3.65,3.65,0,0,0-.41,2.4c0,.22.08.44.13.66a8.44,8.44,0,0,0,.81,2.34,1.39,1.39,0,0,0,.89.66,2.27,2.27,0,0,0,1.75-.2c.46-.27.92-.56,1.38-.84a12.21,12.21,0,0,0,3.47-3.17,12.87,12.87,0,0,0,.75-1.07c.39-.65.75-1.3,1.11-2a1.69,1.69,0,0,0,.12-.55c0-.51.09-1,.13-1.54a.64.64,0,0,1,.5-.67l-.79-1.31-.12-.12a8.33,8.33,0,0,0-.67-.5.52.52,0,0,0-.38-.1,1.18,1.18,0,0,1-.59,0c-.2-.06-.36.11-.54.07a2.62,2.62,0,0,0-1.21.14l-.23,0a.61.61,0,0,0-.17.07v0Zm.56-.54h0ZM7,14.89l0,.06.15-.06v0Z"/><path d="M84.85,10.34a2.08,2.08,0,0,0-.36.07,8.81,8.81,0,0,1-1.91.35c-.37,0-.74.05-1.1.09a1,1,0,0,1-1-.5,5.22,5.22,0,0,1-.71-1.84.6.6,0,0,1,.42-.77,3.75,3.75,0,0,1,.88-.2c1.12-.16,2.24-.27,3.36-.45.67-.11.64,0,.79-.74.22-1.06.44-2.12.67-3.18a9.5,9.5,0,0,1,.71-2,9.29,9.29,0,0,0,.35-.87A2.38,2.38,0,0,1,87.07,0a1.52,1.52,0,0,1,.13.26c.09.26.18.52.26.79a2.81,2.81,0,0,1,.09.49,5.72,5.72,0,0,1-.15,1.6,24.33,24.33,0,0,0-.51,3.39c0,.06,0,.13,0,.22l.33,0c.91,0,1.82,0,2.73,0,.59,0,1.18-.09,1.77-.13a1.48,1.48,0,0,1,.47,0c.18,0,.26.12.24.29a5.85,5.85,0,0,1-.21,1.24,3.58,3.58,0,0,0-.14.65.74.74,0,0,0,.05.25,1,1,0,0,1-.74.41c-.69.11-1.39.21-2.09.28A18.86,18.86,0,0,0,87,10c-.36.09-.4.12-.43.48a34.93,34.93,0,0,1-.42,3.67c-.19,1.12-.34,2.25-.46,3.39a8.54,8.54,0,0,0,0,1.51c.06.72.14,1.45.24,2.16a11.21,11.21,0,0,0,.6,2.51,2.39,2.39,0,0,0,.24.48,1.09,1.09,0,0,0,.85.53,4.9,4.9,0,0,0,2.08-.23l2.7-.91.63-.2c.3-.09.51.08.44.38a2.55,2.55,0,0,1-.3.7,1.57,1.57,0,0,1-.65.6c-.48.22-.92.5-1.39.74a3.32,3.32,0,0,1-.71.29,16.81,16.81,0,0,1-1.7.41,3.46,3.46,0,0,1-1.5-.05,1.34,1.34,0,0,1-.52-.29A14.72,14.72,0,0,1,85.64,25a3.22,3.22,0,0,1-.45-.81,12.15,12.15,0,0,1-.82-3.66c-.06-.82-.17-1.65-.23-2.47,0-.47,0-.94,0-1.4,0-.13,0-.25,0-.37,0-.39,0-.78.06-1.17s.11-.66.15-1L84.77,11C84.8,10.78,84.82,10.59,84.85,10.34Z"/><path d="M21.49,27.66a1.09,1.09,0,0,1-.19-.18c-.25-.3-.48-.61-.74-.91a.77.77,0,0,1-.18-.45c-.08-.79-.18-1.58-.25-2.37,0-.47,0-.94-.05-1.41s0-1,0-1.44a17.39,17.39,0,0,1,0-3.46,21.31,21.31,0,0,0,.05-3.66,10.65,10.65,0,0,1,0-2.11.58.58,0,0,1,.56-.53h.36a3.8,3.8,0,0,1,.69,2.49c.15-.07.15-.2.19-.29a7,7,0,0,1,1.5-2.25,3.32,3.32,0,0,1,1.64-.87,7,7,0,0,1,4.08.14,5.58,5.58,0,0,1,2.29,1.47,3.41,3.41,0,0,1,.88,1.65c.12.61.21,1.23.3,1.85.11.91.24,1.82.31,2.74a35.62,35.62,0,0,1,.18,4.26c0,.53-.06,1.05-.08,1.58q0,.56,0,1.11a1.76,1.76,0,0,1-.12.85.3.3,0,0,0,0,.16.78.78,0,0,1-.42.68s-.09,0-.12-.09c-.17-.27-.35-.55-.5-.83a1.56,1.56,0,0,1-.17-.5,8,8,0,0,1-.09-1.95,25.7,25.7,0,0,0,0-4c-.1-1.19-.2-2.37-.31-3.55,0-.34-.1-.67-.14-1a.74.74,0,0,0-.26-.46A4.94,4.94,0,0,0,29,13.25a4.18,4.18,0,0,0-1.19-.31,8.11,8.11,0,0,0-1.31.05,13.68,13.68,0,0,0-1.5.47c-.07,0-.13.08-.21.11a3.07,3.07,0,0,0-1.64,1.66,9.82,9.82,0,0,0-1,3.19c-.09.81-.3,1.61-.46,2.41a11.18,11.18,0,0,0-.12,3.11c.06.94.06,1.88.07,2.82a6.79,6.79,0,0,1-.12.89Z"/><path d="M43.3,16.82c.2-.24.4-.45.58-.67a25.09,25.09,0,0,0,1.87-2.71c.36-.56.67-1.15,1-1.7s.72-1,1.09-1.48c.29.11.2.46.46.54a2.57,2.57,0,0,0-.21,1.06,3.13,3.13,0,0,1-.14.78,3,3,0,0,1-.43,1,8.89,8.89,0,0,0-.67,1.39,17.79,17.79,0,0,1-2.18,3.66,1.67,1.67,0,0,1-.12.16c-.18.18-.15.35,0,.56.85,1.51,1.68,3,2.52,4.52l.59,1.14a.86.86,0,0,0,.13.23.84.84,0,0,1,.11,1c-.13.31-.21.65-.32,1,0,0,0,.08,0,.14A1.28,1.28,0,0,1,47.1,27c-.68-.94-1.14-2-1.74-3s-1.19-1.93-1.78-2.89a2.08,2.08,0,0,0-.15-.2.71.71,0,0,0-.4.43c-.3.54-.59,1.08-.86,1.63-.47.93-.92,1.87-1.38,2.81-.09.17-.15.35-.23.52s-.18.29-.31.49l-.32-.62c-.2-.42-.4-.83-.59-1.25a.82.82,0,0,1,0-.72c.38-1,.84-1.88,1.3-2.8.22-.43.41-.87.62-1.3l.52-1A1,1,0,0,0,41.7,18a16.45,16.45,0,0,0-1.58-2.05l-1.67-1.64a1.43,1.43,0,0,1-.51-1.13c0-.39,0-.78-.07-1.17a2.1,2.1,0,0,1,0-.5.3.3,0,0,1,.47-.18,17.88,17.88,0,0,1,2.37,1.87,8.67,8.67,0,0,1,1.13,1.5c.42.61.8,1.24,1.2,1.87A3.56,3.56,0,0,0,43.3,16.82Z"/><path d="M55.53,11.4a1.22,1.22,0,0,1,.52,1c0,.53.12,1.07.12,1.6,0,.95,0,1.9-.06,2.85,0,1.37-.1,2.73-.13,4.1s0,2.53,0,3.79a3.85,3.85,0,0,0,.07.49,1,1,0,0,1,0,.23,3.89,3.89,0,0,1-.63,2.18s-.12,0-.16-.08c-.27-.32-.53-.63-.79-1a.54.54,0,0,1-.09-.31c0-1.21,0-2.42-.06-3.62,0-1.9,0-3.79-.08-5.68a14.45,14.45,0,0,1,.36-3.53c.09-.36.23-.7.35-1a1.11,1.11,0,0,0,.1-.29C55,11.75,55.26,11.58,55.53,11.4Z"/><path d="M57.14,5.94c-.11,0-.21-.06-.3-.1-.29-.12-.58-.23-.87-.36s-.39-.2-.59-.31a.38.38,0,0,1-.21-.47c.07-.35.17-.69.26-1.08a1.45,1.45,0,0,0,1.38.13,1.18,1.18,0,0,0,.38.73c.09.08.09.26.13.4A1.55,1.55,0,0,1,57.14,5.94Z"/></svg>