<svg id="Layer_1" data-name="Layer 1" xmlns="http://www.w3.org/2000/svg" viewBox="0 0 112.93 51.85"><path d="M18.43,20.12a7.16,7.16,0,0,1-.64.88c-.21.3-.47.54-.69.82a4.68,4.68,0,0,1-1.44,1.1,3.74,3.74,0,0,1-.72.29c-.34.11-.67.26-1,.39l-.3.12a1.28,1.28,0,0,1-.44.09,2,2,0,0,0-.48.09,6.68,6.68,0,0,1-1.55.15,4.06,4.06,0,0,1-1.87-.48,6,6,0,0,1-.55-.38l-.14.12a2.78,2.78,0,0,1-.78.58,2.67,2.67,0,0,1-.36.14,1,1,0,0,0-.24.1,2.55,2.55,0,0,1-1.52.37l-.46-.05H5a2.66,2.66,0,0,0,.91.27l-.38,0a.44.44,0,0,0-.27.09.37.37,0,0,1-.31.05l-.71-.11c-.21,0-.43,0-.65-.05a3.84,3.84,0,0,1-.88-.19,2.36,2.36,0,0,1-1.15-.76h0c-.14,0-.28,0-.42,0a.2.2,0,0,1-.18-.19.11.11,0,0,1,.12-.13l.28.09a3.28,3.28,0,0,1-.47-.85,1,1,0,0,1,0-1,1.94,1.94,0,0,0-.15-.24,3.09,3.09,0,0,1-.41-.81C.25,20.42.17,20.22.1,20A4,4,0,0,1,0,18.92l0-2c0-.87,0-1.73-.09-2.6s-.09-1.52-.06-2.28a1,1,0,0,0-.13-.59,1.09,1.09,0,0,1-.12-.4.43.43,0,0,1,.12-.39,2.87,2.87,0,0,0,.36-.5,2.34,2.34,0,0,1,.37-.4.51.51,0,0,1,.27-.12.36.36,0,0,1,.32.1,2.54,2.54,0,0,1,.58.6.49.49,0,0,0,.15,0,.53.53,0,0,1,.7.25,2.85,2.85,0,0,1,.24.53,5.12,5.12,0,0,1,.15.56c.09.35.19.69.27,1a.35.35,0,0,1,0,.25.66.66,0,0,0-.09.43,1.77,1.77,0,0,1,0,.23l-.15.07a2.22,2.22,0,0,0-.1,1,.49.49,0,0,0-.15.51,1,1,0,0,1,0,.35,1,1,0,0,0,0,.48c0,.1,0,.18-.11.26s0,.13.1.21a.76.76,0,0,1,0,.47c-.08.18,0,.2.15.3a.11.11,0,0,1,0,.15l-.14-.05s0,0,0,0a2.56,2.56,0,0,0-.11.24c0,.07,0,.15,0,.22a.44.44,0,0,1,.05.28,4.3,4.3,0,0,0,.12,1.13,4.22,4.22,0,0,1,.07.61c0,.12,0,.24,0,.36s0,.25,0,.38,0,.1,0,.13a1.15,1.15,0,0,1,.2.57.29.29,0,0,0,.19.21.44.44,0,0,1,.3.28c.08,0,.08,0,.11-.06s.23-.1.31,0A1.42,1.42,0,0,0,4.2,22a.84.84,0,0,1,.2.29,3.92,3.92,0,0,1,.16.36c.27.05.52.1.78.13a1.23,1.23,0,0,0,.6-.08,3.56,3.56,0,0,0,.94-.51,2.59,2.59,0,0,1,.86-.57c0-.08-.06-.13-.08-.19-.08-.29-.19-.58-.25-.87a11.1,11.1,0,0,1-.2-2.76,8.47,8.47,0,0,1,.28-1.66c.09-.37.18-.74.3-1.1a11,11,0,0,1,.73-1.74A1.91,1.91,0,0,1,8.76,13a5.8,5.8,0,0,1,1.3-1.27,7.8,7.8,0,0,1,1.16-.65,6.74,6.74,0,0,1,1.36-.44,6.1,6.1,0,0,1,1.35-.19h.69a4.44,4.44,0,0,1,1.4.21,7.69,7.69,0,0,1,1.54.71c.22.13.43.3.64.44l.1.05a1,1,0,0,0,0-.23c0-.33,0-.65,0-1,0-.94,0-1.89.07-2.83,0-.74,0-1.48.08-2.21s.08-1.15.09-1.73c0-.77.17-1.53.26-2.29a1.43,1.43,0,0,0,0-.29A.7.7,0,0,1,19,.89.36.36,0,0,1,19.34.7a2.1,2.1,0,0,1,1.37.52.47.47,0,0,1,.18.36V2.72c0,.31,0,.61,0,.92,0,.54,0,1.08,0,1.62s0,1,0,1.47,0,1.13,0,1.69c0,.35,0,.7.05,1s0,.63,0,.95c0,.84,0,1.69,0,2.54,0,1.22,0,2.45,0,3.68,0,.75,0,1.5,0,2.25,0,.36,0,.73.06,1.1a10.57,10.57,0,0,0,.11,1.39c.07.36.17.7.25,1.05a.8.8,0,0,0,.83.55l1.05-.2.22-.05a.56.56,0,0,0,.52-.41.56.56,0,0,1,.35-.32l.27-.12.25-.11c0-.08,0-.14-.06-.2-.11-.29-.23-.58-.33-.88a11.31,11.31,0,0,1-.65-2.41,6.24,6.24,0,0,1-.07-1.14,1.62,1.62,0,0,1,.2-.68.64.64,0,0,1,.26-.28.33.33,0,0,0,.17-.3,3.69,3.69,0,0,1,.26-.9c0-.05.06-.09.06-.14A2.09,2.09,0,0,1,25.1,14c0-.07.09-.12.12-.19a4.22,4.22,0,0,1,.93-1.13c.46-.45,1-.89,1.44-1.31a4.59,4.59,0,0,1,1-.67,1.33,1.33,0,0,1,1-.1,1.91,1.91,0,0,0,.48.06,1.15,1.15,0,0,1,.6.13,5,5,0,0,1,.51.27,2.82,2.82,0,0,0,.67.34.8.8,0,0,1,.22.13l.85.66a1,1,0,0,1,.32.4c.06.13.15.24.21.37a4.45,4.45,0,0,1,.4,1.79,2.58,2.58,0,0,1-.08.68c0,.12-.05.26-.08.38a7.56,7.56,0,0,1-.69,1.86,4.08,4.08,0,0,1-.55.76c-.39.44-.76.89-1.12,1.36l-.14.18a3.85,3.85,0,0,0-.68.87.59.59,0,0,1-.15.17l-.95.89-.49.47a.26.26,0,0,0-.06.3A.88.88,0,0,0,29,23c.24.21.45.45.7.64a6.26,6.26,0,0,0,1.66,1l1.17.41a2,2,0,0,0,.77.07c.22,0,.43,0,.65-.08a.67.67,0,0,1,.5.06s0,0,0,0A2.57,2.57,0,0,1,35,24.5c.21-.24.37-.52.55-.77a1,1,0,0,0,.16-.32,5.82,5.82,0,0,0,.25-.84c.06-.27.07-.55.11-.83a4.83,4.83,0,0,0,0-1.2c0-.36-.07-.71-.1-1.07-.08-.91-.09-1.82-.13-2.73a2.38,2.38,0,0,0,0-.46,5.43,5.43,0,0,1,0-.81,3.62,3.62,0,0,0-.2-1.08c-.07-.26-.14-.52-.2-.79a.83.83,0,0,1,.14-.68,2.27,2.27,0,0,1,.33-.48.39.39,0,0,1,.38-.11l.07,0a2.38,2.38,0,0,0,.53.22,2.48,2.48,0,0,1,.54.12l.66.36a.29.29,0,0,1,.1.16c0,.12,0,.25.06.38s0,.5.08.74a2.58,2.58,0,0,0,0,.29.59.59,0,0,0,.08.16,2.81,2.81,0,0,1,.55-.71,1.59,1.59,0,0,1,.49-.63,6.24,6.24,0,0,1,2-1.22,3.26,3.26,0,0,1,1.38-.14,1.94,1.94,0,0,1,.89.31,10.61,10.61,0,0,1,.88.61,3.74,3.74,0,0,1,1.47,2.34,13.88,13.88,0,0,1,.26,2c0,.49,0,1,0,1.49s-.06.85-.09,1.27-.07.91-.1,1.36a12,12,0,0,0,0,1.34A6.4,6.4,0,0,0,46.21,24a5.06,5.06,0,0,0,.62,1.5l.12.19a1.25,1.25,0,0,0,1.14.63,15.33,15.33,0,0,0,1.66,0,5.9,5.9,0,0,0,.73-.15.2.2,0,0,0,.13-.08c0-.12.15-.15.25-.19l.34-.1.43-.16a3,3,0,0,1,.39-.14,5.45,5.45,0,0,0,.76-.3,4.83,4.83,0,0,0,1.62-1.43,2,2,0,0,0,.17-.23.78.78,0,0,0,.11-.2,1.4,1.4,0,0,1,.15-.49.32.32,0,0,0,0-.19,13.38,13.38,0,0,1-.35-1.89c-.05-.47-.11-.95-.13-1.42,0-.71-.06-1.41,0-2.12s.07-1.21.11-1.82c0-.26,0-.52,0-.78,0-.11,0-.23,0-.37a1.54,1.54,0,0,0-.24,0,4.91,4.91,0,0,1-.67.08c-.36,0-.72,0-1.07.09-.11,0-.21,0-.32.07a.32.32,0,0,1-.31,0l-.15,0a.29.29,0,0,1-.25-.35c0-.11,0-.23,0-.35a5.67,5.67,0,0,1,.1-.57c0-.07.11-.13.18-.18a3.06,3.06,0,0,1,.93-.39,14.9,14.9,0,0,1,1.88-.38.53.53,0,0,0,.43-.34.92.92,0,0,0,.08-.25c.18-.73.41-1.46.62-2.19a17.75,17.75,0,0,0,.52-1.8c.07-.35.2-.69.27-1a11.72,11.72,0,0,0,.29-2.36,5.13,5.13,0,0,0-.15-1.35,2.76,2.76,0,0,0-.93-1.5.59.59,0,0,1-.22-.48,4.07,4.07,0,0,1,.05-.49.6.6,0,0,1,.2-.32A.22.22,0,0,1,55.84,0a1,1,0,0,1,1,.34,1.83,1.83,0,0,0,.36.32,3.57,3.57,0,0,1,1.46,2.16,5.21,5.21,0,0,1,.14,1c0,.41.08.81.09,1.21a9,9,0,0,1-.18,2.13c-.11.43-.15.88-.29,1.3-.19.58-.29,1.18-.46,1.76-.12.39-.19.8-.28,1.2a1.5,1.5,0,0,0,0,.3,3.9,3.9,0,0,0,.57.08l2.4.15.65.06a.67.67,0,0,1,.43.2c.09.09.2.16.29.25a1.37,1.37,0,0,1,.33.39c.13.23.27.45.41.68a.47.47,0,0,1-.18.1l-.93.14-.35.07a.9.9,0,0,1-.22.06c-.31,0-.62,0-.94,0-.56,0-1.13-.06-1.69-.07-.35,0-.69,0-1,0s-.4.13-.47.44a12.2,12.2,0,0,0-.25,1.57c-.06.48-.11,1-.19,1.42a9.35,9.35,0,0,0,0,2.18,9.91,9.91,0,0,0,.15,1.22A11.88,11.88,0,0,0,57,22.24c0,.12.07.23.1.35a5.9,5.9,0,0,0,1.36,2.31,1.45,1.45,0,0,0,.84.45c.36.06.72.16,1.07.25a2.16,2.16,0,0,0,.62,0,4.54,4.54,0,0,0,1.09-.15.57.57,0,0,1,.26,0,.81.81,0,0,0,.41,0A8.7,8.7,0,0,0,65,24.58a2.71,2.71,0,0,0,.35-.24c.29-.23.59-.45.85-.7a7.53,7.53,0,0,0,.65-.73.74.74,0,0,1,.58-.35c0-.07,0-.14,0-.22,0-.46-.05-.93-.05-1.4,0-.77,0-1.54,0-2.31,0-.93,0-1.87,0-2.8a1,1,0,0,0-.09-.51.3.3,0,0,1,0-.19c0-.23,0-.47.07-.71a1.42,1.42,0,0,1,.12-.4.41.41,0,0,1,.43-.28.91.91,0,0,1,.23,0,2.33,2.33,0,0,1,1.07.52,3.74,3.74,0,0,1,.65.67.84.84,0,0,1,.16.43,26,26,0,0,1,.1,2.79c0,.79-.06,1.57-.1,2.35l-.06,1c0,.16,0,.33,0,.49s0,.48,0,.72a1.76,1.76,0,0,0,.18.68c0,.09.1.17.14.26a2.35,2.35,0,0,0,.44.64,2.25,2.25,0,0,0,.8.6c.24.11.47.22.71.31a2.65,2.65,0,0,0,.67.13,3,3,0,0,0,1.23,0,3.7,3.7,0,0,1,.48-.07,2.76,2.76,0,0,0,1-.49.58.58,0,0,0,.1-.12.5.5,0,0,1,.77,0,.59.59,0,0,1,.2.46,2.94,2.94,0,0,1-.12.84l0,.09c-.09.58-.16.44-.46.87a.69.69,0,0,1-.34.24,2.77,2.77,0,0,1-1.29.27c-.44,0-.87,0-1.3,0a5.76,5.76,0,0,1-2.53-.51,12.73,12.73,0,0,1-1.27-.67,3.77,3.77,0,0,1-1.64-2,2.44,2.44,0,0,0-.1-.24c-.08,0-.06.09-.07.13a2,2,0,0,1-.34.8,2.61,2.61,0,0,1-.52.53A7.73,7.73,0,0,1,64.5,26.8a8,8,0,0,1-1.59.46,4.21,4.21,0,0,1-.62,0l-1.68.13a6.89,6.89,0,0,1-.91,0,4.48,4.48,0,0,1-1.25-.25,4.74,4.74,0,0,1-1.53-.83,3.89,3.89,0,0,1-1-1.1,1,1,0,0,0-.23-.3.5.5,0,0,0-.1.11,2.76,2.76,0,0,1-1.13,1.09,15.11,15.11,0,0,1-1.69.77c-.3.1-.58.22-.94.37h.43a.69.69,0,0,1-.32.33A3.32,3.32,0,0,1,51,28l-1.87.25a8.51,8.51,0,0,1-1.43.07,2.72,2.72,0,0,1-1.41-.44A4.15,4.15,0,0,1,45,26.62a6.15,6.15,0,0,1-.76-1.79,15.53,15.53,0,0,1-.38-4.3c0-.36.07-.73.09-1.1,0-.53,0-1.06,0-1.59,0-.27,0-.55,0-.82a7.08,7.08,0,0,0-.45-2.32,1.93,1.93,0,0,0-.7-.92.74.74,0,0,0-.42-.15.4.4,0,0,0-.24.07c-.25.19-.5.39-.73.6a3.36,3.36,0,0,0-.66.84,5.39,5.39,0,0,0-.48,1.1,13.39,13.39,0,0,0-.4,1.54q-.06.43-.09.87c0,.56-.09,1.11-.15,1.66s-.16,1.18-.24,1.77c0,.2,0,.41,0,.61s-.08.45-.11.68-.07.65-.1,1a.47.47,0,0,1-.23.37,4.11,4.11,0,0,0-.39.24c-.08-.17.1-.31,0-.48,0,0-.06.05-.07.08a1.07,1.07,0,0,0-.07.19,1.32,1.32,0,0,1-.47.71,1.09,1.09,0,0,0-.18.19c-.14.15-.18.38-.38.51a2.49,2.49,0,0,0-.46.4,3.05,3.05,0,0,0-.32.38l-1.1.27-.22.05a.27.27,0,0,0-.26.1.17.17,0,0,1-.14.07,1.37,1.37,0,0,1-.28-.05c-.09,0-.17-.08-.28-.13a.12.12,0,0,0-.07,0,2.9,2.9,0,0,1-1.45.28,2.73,2.73,0,0,1-1.4-.36,5.11,5.11,0,0,0-1.12-.44A3.33,3.33,0,0,1,28.77,26l-1-1-.47-.39a.41.41,0,0,0-.21-.1,1,1,0,0,1-.64-.42.45.45,0,0,0-.61-.13,7.84,7.84,0,0,1-1.28.37c-.39.08-.78.2-1.16.31a6.77,6.77,0,0,1-1.48.21A2.51,2.51,0,0,1,19.82,24a4.36,4.36,0,0,1-1.06-2.2C18.64,21.27,18.55,20.73,18.43,20.12ZM32,17.92a1.36,1.36,0,0,0-.43.52.26.26,0,0,0,.25-.12,1,1,0,0,0,.18-.41.36.36,0,0,0,.13-.26C32.06,17.74,32,17.79,32,17.92ZM18.21,14.41a.7.7,0,0,1-.56-.5c0-.08,0-.16-.07-.25a1.6,1.6,0,0,0-.1-.23,2.9,2.9,0,0,0-1.3-1.15A6.43,6.43,0,0,0,15.4,12a5.28,5.28,0,0,0-1.68-.11,3.39,3.39,0,0,0-1.9.69,3.79,3.79,0,0,0-1.16,1.58c-.06.15-.13.3-.18.45a5.89,5.89,0,0,0-.27.77c-.09.44-.23.88-.33,1.32a4,4,0,0,0-.07.48,4.07,4.07,0,0,1-.06.61,1.7,1.7,0,0,0,0,.39c0,.54.12,1.08.16,1.62a7.75,7.75,0,0,0,.27,1.27c0,.14.1.27.15.4a.68.68,0,0,0,.57.43l.58.07a4.78,4.78,0,0,0,.84-.08,4.11,4.11,0,0,0,1.1-.26l.31-.11a4,4,0,0,0,.91-.49A7.87,7.87,0,0,0,16.1,19.6a5.08,5.08,0,0,0,.62-1c.28-.58.55-1.18.8-1.78a7.79,7.79,0,0,0,.31-.85c.11-.34.19-.69.3-1A1.61,1.61,0,0,0,18.21,14.41Zm8.56,4.32a.73.73,0,0,0,.47-.29.48.48,0,0,1,.23-.13.21.21,0,0,1,.29.24L27.7,19c-.17,0-.25.16-.38.23s0,.1,0,.14.07,0,.12.05l-.14.2h-.21c0,.24.18.34.37.45a4.3,4.3,0,0,1,.23-.48L28.86,18l1-1.35a5,5,0,0,1,.78-.88.68.68,0,0,0,.18-.26,2.81,2.81,0,0,0,.24-.81.72.72,0,0,0,0-.29c-.05-.22-.09-.44-.15-.66s-.14-.37-.21-.55a.62.62,0,0,0-.42-.41h-.06l-.06.11L30,12.79l-.12.08a5,5,0,0,1-.74.63,6.16,6.16,0,0,0-1.37,1.42c-.07.1-.13.2-.19.3a3.64,3.64,0,0,0-.62,1.83A10.51,10.51,0,0,1,26.77,18.73Zm1.38,3.53c.11-.1.22-.19.31-.29a.09.09,0,0,0,0-.14.1.1,0,0,0-.14,0l-.27.22a.24.24,0,0,0,0,.07ZM34.86,27a0,0,0,0,0,0,0,.94.94,0,0,0,.5,0,.19.19,0,0,0,0-.08s0-.07-.06-.07l-.3-.07ZM3.25,23.33c.07.22.15.23.38.07A.38.38,0,0,0,3.25,23.33ZM37.91,17h0v-.71h0Zm-9.75,4.72c-.32.18-.32.18-.38.32C28,22,28,21.91,28.16,21.68Zm5.22,4.42c.15.1.28.17.44,0C33.72,26.09,33.72,26.09,33.38,26.1Zm-5.33-5.62a.78.78,0,0,0-.33.32A.53.53,0,0,0,28.05,20.48Zm4.22,5c.14.08.14.08.27.05C32.45,25.46,32.38,25.42,32.27,25.48ZM3.71,23c0-.13.08-.2,0-.33C3.66,22.77,3.61,22.84,3.71,23Zm34.41-1.85.16,0,.1-.05v0s-.08,0-.11,0S38.2,21.1,38.12,21.14ZM2.92,13.25c-.09.08-.08.14,0,.25Z"/><path d="M101,32.18a2.6,2.6,0,0,1,0-.26c-.08-.66-.15-1.32-.23-2s-.14-1-.22-1.55c-.13-.84-.27-1.67-.4-2.51-.06-.37-.1-.75-.16-1.12,0-.15-.06-.29-.09-.44l-.08,0a7.38,7.38,0,0,1-1.16,1.4c-.27.27-.54.54-.81.79A6.43,6.43,0,0,1,95.35,28l-.47.14a1.38,1.38,0,0,1-.67,0,.69.69,0,0,0-.35,0,2.38,2.38,0,0,1-.65.05,2.16,2.16,0,0,0-.36,0,2.26,2.26,0,0,1-1-.23,3.24,3.24,0,0,1-1-.65l-.61-.62a1.09,1.09,0,0,0-.17.13,5.74,5.74,0,0,1-1.07.9,4.31,4.31,0,0,1-1.32.62,6.91,6.91,0,0,1-2.07.36l-.81,0a6.6,6.6,0,0,1-1.72-.06,10.58,10.58,0,0,1-1.24-.28,5.18,5.18,0,0,1-1.84-1,6.6,6.6,0,0,1-.85-.9,5.18,5.18,0,0,1-.62-1.1c-.1-.27-.22-.52-.31-.79a2.18,2.18,0,0,1-.11-.44,18.84,18.84,0,0,1-.25-2c0-.32,0-.64-.07-1s0-.43,0-.65c0-.43,0-.87,0-1.3s.08-1.12.11-1.69l0-1.07c0-.24,0-.48,0-.72s0-.21,0-.33a1.31,1.31,0,0,0-.56,0l-1.11.22-.23,0h-.38l-.05,0a.53.53,0,0,1-.16-.61.2.2,0,0,0,0-.07,1.06,1.06,0,0,1,.65-.94,4.36,4.36,0,0,1,1.22-.45l.44-.11a.28.28,0,0,0,.23-.24,1.6,1.6,0,0,0,0-.23c0-.59.08-1.19.11-1.78L78.25,10a5.17,5.17,0,0,1,.07-.55,12,12,0,0,0,.22-1.58,2.5,2.5,0,0,0-.27-1.43,2.85,2.85,0,0,0-.29,0,.27.27,0,0,1-.21-.13,1.06,1.06,0,0,1-.24-.59,2.57,2.57,0,0,1,0-.68,1,1,0,0,1,.1-.24.61.61,0,0,1,.7-.3,1,1,0,0,1,.28.09,5.85,5.85,0,0,1,1.38.9,2.73,2.73,0,0,1,.7,1.16A6.08,6.08,0,0,1,81,7.79a9.56,9.56,0,0,1,0,1.85,5.06,5.06,0,0,1-.09,1.1.17.17,0,0,0,0,.1.89.89,0,0,1,0,.51,2.18,2.18,0,0,0,0,.44c0,.18,0,.36,0,.55s0,.45,0,.68c0,0,0,0,0,.06l1,0a13.68,13.68,0,0,1,1.92,0c.13,0,.28,0,.42,0a.8.8,0,0,1,.45.14c.08.06.2.07.26.13a1.31,1.31,0,0,0,.45.24,2,2,0,0,1,.42.3l.56.49.08.1a.17.17,0,0,1-.17.14,4.69,4.69,0,0,1-.72.17.57.57,0,0,0-.27.11.69.69,0,0,1-.68.05,1.26,1.26,0,0,0-.54-.1c-.61,0-1.23,0-1.85.09L82,15a3.66,3.66,0,0,0-.65.06,2,2,0,0,1-.42,0,.9.9,0,0,0-.09.41,3.44,3.44,0,0,1-.05.85.81.81,0,0,0,0,.16,2.31,2.31,0,0,1-.09.74,4,4,0,0,0-.11.77,2.13,2.13,0,0,1,0,.25c0,.31,0,.61-.07.91s0,.36,0,.55c0,.46,0,.93-.08,1.39a12.88,12.88,0,0,0,.1,2.24,4.08,4.08,0,0,0,.71,1.93,6.18,6.18,0,0,0,.89,1,7.62,7.62,0,0,0,.91.44c.39.13.79.22,1.19.32h.1a9,9,0,0,0,1.27,0,9.87,9.87,0,0,0,1.94-.5,2.7,2.7,0,0,0,.79-.45,6.74,6.74,0,0,0,.94-.91c.08-.1.17-.19.26-.29a.58.58,0,0,0,.15-.51A19.09,19.09,0,0,1,89.39,22a7.64,7.64,0,0,0,0-1.07c0-.24,0-.48,0-.71s0-.2,0-.3a13,13,0,0,1,.1-1.65,11.59,11.59,0,0,1,.39-2.18c.09-.35.19-.71.28-1.07a.59.59,0,0,1,.26-.32.3.3,0,0,1,.21,0,1.59,1.59,0,0,1,.76.25c.18.11.34.23.51.35a.65.65,0,0,1,.27.63c0,.28-.09.56-.12.84a4.36,4.36,0,0,0,0,.52.42.42,0,0,0,0,.22,2.23,2.23,0,0,1,.07,1c-.05.64-.16,1.27-.17,1.91s-.08,1.13-.09,1.69,0,1.13,0,1.69c0,.38.07.76.11,1.14a1.85,1.85,0,0,0,.24.73,1.27,1.27,0,0,0,.54.51.92.92,0,0,0,.63.08.87.87,0,0,1,.48,0c.06,0,.17,0,.25,0a9.52,9.52,0,0,0,.92-.41c.36-.19.71-.42,1.06-.64s.42-.3.63-.46a8,8,0,0,0,1.39-1.45,17.49,17.49,0,0,0,1.15-1.66.22.22,0,0,1,0-.08,1.48,1.48,0,0,0,.23-.83c0-.77,0-1.54.08-2.31,0-.35.08-.69.1-1a7.74,7.74,0,0,1,.2-1.25,4.23,4.23,0,0,1,.31-1.09c.11-.2.21-.4.31-.61a1.06,1.06,0,0,1,.38-.35.35.35,0,0,1,.25,0,1.59,1.59,0,0,1,.74.38l.19.18a1.4,1.4,0,0,1,.28.47,4.36,4.36,0,0,1,.18,1.48,11.72,11.72,0,0,1-.18,1.87c-.1.54-.21,1.07-.36,1.59-.09.29-.19.57-.3.86a1.61,1.61,0,0,0-.09.54c0,.31,0,.63,0,.94s.06.85.1,1.27a1.67,1.67,0,0,1,0,.32,8.05,8.05,0,0,0,.11,1.3c.06.43.1.86.15,1.29s.15,1,.22,1.51.22,1.3.25,2c0,.19,0,.38.07.58s0,.32,0,.48a.72.72,0,0,0,.14.41l.47-.09c.71-.15,1.42-.31,2.14-.45.38-.07.77-.11,1.16-.15a18.35,18.35,0,0,1,2.57-.07,7,7,0,0,1,2.62.55,2.16,2.16,0,0,1,.65.43,1.91,1.91,0,0,1,.48.95,3.18,3.18,0,0,1,.07.55.52.52,0,0,1-.09.34.34.34,0,0,1-.28.19,2.17,2.17,0,0,0-.35.07l-.09,0a8.93,8.93,0,0,1-1.27.05.49.49,0,0,1-.45-.59.9.9,0,0,1,.08-.21s0-.1,0-.17a4.86,4.86,0,0,0-.89-.23,10.15,10.15,0,0,0-2.27-.12,8.58,8.58,0,0,0-1.74.24c-.38.1-.78.16-1.17.27s-.82.26-1.23.41a.55.55,0,0,0-.19.12.27.27,0,0,0-.12.25,2.17,2.17,0,0,0,0,.26c0,.58.08,1.15.09,1.72s0,1.39,0,2.09c0,.45-.08.91-.11,1.36,0,.72-.18,1.42-.29,2.13-.08.53-.21,1.06-.33,1.59,0,.15-.08.29-.11.44a12.23,12.23,0,0,1-1,2.8,17.08,17.08,0,0,1-.82,1.52,6,6,0,0,1-.48.65c-.27.33-.53.66-.81,1a8.71,8.71,0,0,1-2.67,2,4.91,4.91,0,0,1-1.75.48l-.19,0a1.78,1.78,0,0,1-.46,0,6.4,6.4,0,0,0-.88-.05,2.17,2.17,0,0,1-.57-.07,3.82,3.82,0,0,1-1-.35.85.85,0,0,0-.44-.11.4.4,0,0,1-.21-.07,3.22,3.22,0,0,1-1-.88c-.11-.15-.24-.28-.34-.43a6,6,0,0,1-1.08-2.42,4.62,4.62,0,0,1-.08-.65c0-.41,0-.82,0-1.24a10.23,10.23,0,0,1,.16-1.09,12.71,12.71,0,0,1,.65-2.18,8.3,8.3,0,0,1,.9-1.69,15.45,15.45,0,0,1,2.49-2.92c.38-.35.76-.71,1.16-1,.58-.47,1.18-.93,1.78-1.37s1.24-.85,1.88-1.23c.92-.54,1.86-1,2.82-1.48.2-.1.4-.18.6-.27Zm.11,2a.87.87,0,0,0-.19,0c-.56.29-1.13.55-1.68.86a20.6,20.6,0,0,0-2.42,1.59c-.43.33-.87.65-1.29,1s-.77.64-1.14,1a11.22,11.22,0,0,0-1.29,1.29l-1,1.23a9.84,9.84,0,0,0-1,1.54,8.9,8.9,0,0,0-.73,1.85,3.54,3.54,0,0,0-.14,1.41c0,.26.08.52.14.77a5.42,5.42,0,0,0,.91,2.07,4,4,0,0,0,1.3,1.16,1.81,1.81,0,0,0,1,.26c.16,0,.31,0,.46,0a2.93,2.93,0,0,0,.67-.1,5.53,5.53,0,0,0,1.61-.76c.18-.13.34-.28.52-.4a4.43,4.43,0,0,0,.68-.55,1.31,1.31,0,0,0,.2-.21c.11-.13.21-.28.33-.4a2.12,2.12,0,0,0,.49-.69.35.35,0,0,1,0-.08,4.59,4.59,0,0,0,.78-1.2c0-.11.12-.22.18-.34s.21-.43.3-.65c.24-.68.5-1.36.68-2.07a22.56,22.56,0,0,0,.53-2.41c.06-.43.1-.86.14-1.3s.09-.82.1-1.23a21.36,21.36,0,0,0,0-2.4c0-.38,0-.76-.07-1.14A.54.54,0,0,0,101.09,34.14ZM84.31,14.34a.35.35,0,0,0,.1-.31C84.33,14.14,84.27,14.23,84.31,14.34Z"/><path d="M1,2.72a1.5,1.5,0,0,1,.16-.67.65.65,0,0,1,.66-.38,2.1,2.1,0,0,1,.51.1A3.26,3.26,0,0,0,3.09,2a.44.44,0,0,1,.3.17,1.07,1.07,0,0,1,.24.38.64.64,0,0,1,0,.41,1.34,1.34,0,0,1-.28.62,1.43,1.43,0,0,0-.16.24,1.94,1.94,0,0,1-.4.58l-.22.19-.2.2s-.06,0-.08,0a4.18,4.18,0,0,1-.51-.07,1,1,0,0,1-.63-.57A1.38,1.38,0,0,1,1,3.48C1,3.23,1,3,1,2.72Z"/><path d="M71.66,7.93l-.09-.31a.59.59,0,0,0-.07.14c0,.16-.08.32-.25.39s-.06.09-.09.14A1.9,1.9,0,0,1,71,8.5a.18.18,0,0,1-.24,0c-.09-.07-.18,0-.28,0a.37.37,0,0,1-.38-.11.79.79,0,0,0-.18-.14c-.25-.18-.25-.18-.36-.5l-.14,0h-.18l0,.15H69.1a.73.73,0,0,0-.4-.2,2.08,2.08,0,0,1-.07-.55.28.28,0,0,1,0-.15,2.61,2.61,0,0,1,.17-.28,4.74,4.74,0,0,1,.79-.76h0c.53-.26.61-.23,1,.1a8.35,8.35,0,0,1,.59.6.94.94,0,0,1,.17.31.77.77,0,0,0,.32.47A1.44,1.44,0,0,1,72,7.7c-.06.15-.21.17-.33.23Z"/><path d="M3.12,20.1A2.91,2.91,0,0,1,3,19,3.39,3.39,0,0,1,3.12,20.1Z"/><path d="M69.74,8.5l-.46-.17C69.55,8.33,69.58,8.34,69.74,8.5Z"/><path d="M75.58,24.59a.38.38,0,0,1-.26.23A.42.42,0,0,1,75.58,24.59Z"/><path d="M71.66,7.93c0,.11-.07.2-.21.22l.21-.22Z"/></svg>