<svg id="Layer_1" data-name="Layer 1" xmlns="http://www.w3.org/2000/svg" viewBox="0 0 116.54 20.11"><path d="M107.2,9.26c-.07.17-.12.29-.16.41l-.69,1.93A15.09,15.09,0,0,1,105.19,14c-.27.48-.56.94-.85,1.41a2.47,2.47,0,0,0-.39,1.29.82.82,0,0,1-.42.72.42.42,0,0,1-.31,0c-.34-.13-.67-.31-1-.44a1,1,0,0,1-.55-.71,2.72,2.72,0,0,1,.1-1.52,6.32,6.32,0,0,0,.24-.93l-.28.3A5.87,5.87,0,0,1,98.07,16a3.19,3.19,0,0,1-2.29-.53c-.22-.15-.48-.24-.71-.37a3.54,3.54,0,0,1-1.66-2,10.05,10.05,0,0,1-.32-1.34,7.27,7.27,0,0,1,.32-4.18,21.59,21.59,0,0,1,1-2,.75.75,0,0,1,.23-.24.5.5,0,0,1,.59-.08c.19.11.39.21.6.31.18-.78.8-1.07,1.48-1.27.31-.09.63-.13,1-.2L98.09,4a3.71,3.71,0,0,1,1.42.09c.28.08.56.22.84.33a6.56,6.56,0,0,1,1.37.7,3,3,0,0,1,.44.36,15.29,15.29,0,0,1,1.06,1.21,4.4,4.4,0,0,1,.52,1,4.21,4.21,0,0,1,.33,1.42l.13-.21c.44-.85.87-1.7,1.32-2.53a3.12,3.12,0,0,1,1-1,.29.29,0,0,1,.24,0,1.4,1.4,0,0,1,.3.15c.26.14.51.31.78.44a3.45,3.45,0,0,1,.9.8,4,4,0,0,1,.9,1.63c.2.68.37,1.36.53,2,.21.88.4,1.76.6,2.65h.07c.11-.28.23-.56.33-.84.36-1.06.72-2.12,1.07-3.18.11-.32.18-.65.3-1s.3-.69.43-1,.3-.84.43-1.27c.32-1.12.62-2.24.94-3.36a1.43,1.43,0,0,1,.14-.34.36.36,0,0,1,.5-.14c.23.17.44.35.66.51a8,8,0,0,1,.87,1,.46.46,0,0,1,.06.31,3,3,0,0,1-.19.71,14.74,14.74,0,0,0-.53,2.08c-.2,1.25-.51,2.47-.77,3.71a17.6,17.6,0,0,1-.75,2.26c-.26.76-.53,1.52-.82,2.27-.18.48-.41.94-.63,1.4a.58.58,0,0,1-.18.2c-.12.08-.25.15-.37.24a.87.87,0,0,1-1.13,0,2.23,2.23,0,0,0-.94-.42,1,1,0,0,1-.39-.25,4.23,4.23,0,0,1-1.2-1.6,14.73,14.73,0,0,1-1.14-3.78c-.06-.33-.13-.66-.2-1A1.27,1.27,0,0,0,107.2,9.26ZM102.69,7.1a2.34,2.34,0,0,0-1-.87,4.15,4.15,0,0,0-2.87-.36c-.33.08-.52.22-.56.69,0,.09,0,.21-.05.25a.36.36,0,0,0-.08.37.47.47,0,0,1-.55.6,1.82,1.82,0,0,1-.5-.16,1.14,1.14,0,0,1-.23-.15.21.21,0,0,0-.34.07c-.06.08-.11.17-.16.25a4.23,4.23,0,0,0-.49,1.63,7.31,7.31,0,0,0,0,1.87c.06.38.12.77.2,1.15a5.53,5.53,0,0,0,.24.91c.25.62.18.77,1,.49a4.82,4.82,0,0,0,2.2-1.6,9.54,9.54,0,0,0,1.2-1.86,5,5,0,0,0,.4-3.4c-.19-.78-.2-.79-1-.9C99.79,6,99.46,6,99.07,6a3.86,3.86,0,0,1,1.66,0A3.73,3.73,0,0,1,102.69,7.1Zm12.43,1.09s0-.1,0-.15l.81-2.8c.08-.24.14-.49.21-.74s0-.19-.16-.2A20.93,20.93,0,0,0,115.12,8.19Zm-12.24-.9-.06,0,.19.26,0,0Z"/><path d="M51.86,2a1.64,1.64,0,0,1,.83-.39,10.52,10.52,0,0,1,1.25-.21,6.34,6.34,0,0,1,1.37.11,2.77,2.77,0,0,1,1.56.71A5.06,5.06,0,0,1,58,3.34a7.32,7.32,0,0,1,.63,1.25,4.37,4.37,0,0,1,.24,1A1.68,1.68,0,0,1,58.39,7a5.9,5.9,0,0,1-1.47,1.21L54.39,9.7l-.57.33c.33.15.63.27.91.42.52.25,1,.52,1.55.79a5.3,5.3,0,0,1,1.55,1.47c.23.27.46.55.7.82s.16.31-.06.45l-.19.14c-.35.28-.42.28-.87.05a3.3,3.3,0,0,1-.41-.23,2.4,2.4,0,0,1-.47-.37,4,4,0,0,0-1.39-1c-.88-.37-1.73-.78-2.6-1.17l-.38-.15c0,.4.05.75.07,1.1a4.93,4.93,0,0,1,.05.54c0,.41,0,.83-.05,1.24a.42.42,0,0,1-.24.44,1.77,1.77,0,0,0-.24.17.49.49,0,0,1-.64,0,2.07,2.07,0,0,0-.92-.44.4.4,0,0,1-.33-.37c0-.13,0-.25-.06-.37s-.11-.5-.16-.75c-.24-1.14-.77-2.19-1-3.35a11.8,11.8,0,0,1-.19-3.14A4.8,4.8,0,0,1,49,4.5a4.72,4.72,0,0,1,1.7-1.82c.36-.21.73-.4,1.09-.59a.69.69,0,0,0,.28-.21l-.22.06Zm.23,6,1.57-.81A21.58,21.58,0,0,0,56,5.74a1.75,1.75,0,0,0,.81-1.26,1,1,0,0,0-.56-1.09,3.77,3.77,0,0,0-1.4-.33,4.7,4.7,0,0,0-2.58.74,3,3,0,0,0-.4.34,2,2,0,0,1,.14.52,11.65,11.65,0,0,0,0,3C52,7.7,52.06,7.8,52.09,7.92Zm-1-3.11a3.85,3.85,0,0,0-.78,2.36c.14-.32.28-.65.39-1S50.93,5.27,51.06,4.81Z"/><path d="M66.35,8.82l-.9.24-1.08.37a.48.48,0,0,1-.63-.12,2.65,2.65,0,0,0-.23-.14,3.49,3.49,0,0,0-.13.81l-.24,2.54c0,.4-.11.8-.16,1.2a.79.79,0,0,1-.36.51c-.16.12-.36.2-.54.31a.4.4,0,0,1-.44,0c-.35-.19-.7-.37-1-.58a.37.37,0,0,1-.13-.28,14.33,14.33,0,0,1,.13-2.85,18.35,18.35,0,0,1,.59-2.54c.23-.69.46-1.39.73-2.06s.61-1.44,1-2.14c.27-.53.6-1,.91-1.53A.48.48,0,0,1,64,2.4l-.17.41a.39.39,0,0,0,.34-.18l.18-.28c.32-.52.63-1,1-1.54a6,6,0,0,1,.53-.6c-.16-.11-.16-.11-.67.28A.77.77,0,0,1,66.26.08a5.63,5.63,0,0,1,1.43,1,2.34,2.34,0,0,1,.67,1.29,12.09,12.09,0,0,1,.27,2.4c0,.36,0,.71.05,1.07a.34.34,0,0,0,.18.34c.39.14.59.49.86.76a1.24,1.24,0,0,1,.32.92c0,.36-.11.51-.46.6L69,8.58c-.35.09-.37.1-.37.44,0,.53,0,1.06,0,1.58,0,.72.08,1.43.11,2.15a3.29,3.29,0,0,1,0,.83,1.4,1.4,0,0,1-.86,1,.34.34,0,0,1-.2,0,5.28,5.28,0,0,1-.76-.36,1.42,1.42,0,0,0-.41-.2c-.35-.07-.41-.19-.41-.56a.94.94,0,0,1,.3-.84.51.51,0,0,0,.12-.47c0-.52-.07-1-.1-1.54s0-.74,0-1.11ZM64.1,6.74l2.29-.5c0-.27.08-.53.09-.8,0-.46,0-.91,0-1.37,0-.64,0-1.27,0-1.91,0-.1,0-.21-.13-.24A14.74,14.74,0,0,0,64.1,6.74Z"/><path d="M38.41,8.15c.53-.21,1-.4,1.47-.57a12.54,12.54,0,0,1,2.23-.7c.48-.09,1-.12,1.46-.18a1.35,1.35,0,0,1,1.07.46c.06,0,.11.13.17.16.52.29.49.84.65,1.3a.26.26,0,0,1-.22.33,1.49,1.49,0,0,1-1,0,.73.73,0,0,0-.39,0c-.44.1-.9.19-1.33.33-.72.24-1.44.5-2.14.8-.52.22-1,.52-1.52.78a.3.3,0,0,0-.14.32c0,.31,0,.62.07.93s.07.74.11,1.11c0,.15.07.29.11.48l.75-.11c.89-.17,1.78-.36,2.67-.51s1.82-.22,2.73-.35a1,1,0,0,1,1,.54.57.57,0,0,1-.11.78,2.59,2.59,0,0,1-.75.44c-.51.17-1.05.3-1.58.43l-3.51.88c-.19,0-.38.07-.56.11a2.11,2.11,0,0,1-1.31-.18c-.47-.22-.94-.42-1.41-.63l-.3-.15a.45.45,0,0,1-.21-.63l.12-.31a1.23,1.23,0,0,0,0-.69,3.8,3.8,0,0,1,0-.76c0-.35,0-.71-.06-1.07s-.12-.75-.16-1.13a.36.36,0,0,0-.23-.33c-.3-.15-.32-.33-.09-.58A.68.68,0,0,0,36.18,9c0-.58,0-1.16,0-1.74a9,9,0,0,1,.15-1.16c0-.22.08-.41-.12-.58a.19.19,0,0,1,0-.32,4.7,4.7,0,0,1,.65-.53A18.18,18.18,0,0,1,42,2.52c.24,0,.48-.07.73-.1a.5.5,0,0,1,.36.11A13.22,13.22,0,0,1,44.5,3.91a.36.36,0,0,1,.06.46,1.92,1.92,0,0,1-.18.28.58.58,0,0,1-.77.19c-.1,0-.2-.12-.3-.16a1.45,1.45,0,0,0-.92,0,25.42,25.42,0,0,0-3.76,1.6.55.55,0,0,0-.35.62c0,.29,0,.6,0,.9A2.43,2.43,0,0,0,38.41,8.15Z"/><path d="M5.08,11.45c-.28-.19-.24-.5-.31-.76a7.12,7.12,0,0,1-.18-.92c0-.34-.09-.68-.11-1Q4.4,7.8,4.36,6.86a4.17,4.17,0,0,1,0-.5V5.78H3.8l-1.58,0a1.16,1.16,0,0,1-.32-.08A12,12,0,0,1,0,4.56c0-.14.11-.14.19-.15L2,4.19,4.19,4,5,3.83c.09,0,.17-.09.26-.12a1.42,1.42,0,0,1,.5-.15,10.39,10.39,0,0,0,2-.11l1.87-.18a.53.53,0,0,1,.53.27c.31.45.64.89.95,1.33a.55.55,0,0,1-.34.94.45.45,0,0,1-.23,0,3.39,3.39,0,0,1-.75-.28,1.34,1.34,0,0,0-1.2-.07,3.93,3.93,0,0,1-1,.2l-1,.16c-.27,0-.36.14-.34.41a14.54,14.54,0,0,0,.19,1.6c.21,1.11.48,2.21.71,3.31.14.68.24,1.37.37,2a1.08,1.08,0,0,0,.06.2.88.88,0,0,0,.24,0L9.15,13c.35-.12.71-.21,1.06-.31l1.07-.3a1.11,1.11,0,0,1,1.18.29,8.27,8.27,0,0,0,.83.59c0,.22,0,.44-.07.65a.36.36,0,0,1-.33.33,14.53,14.53,0,0,0-2.57.75c-.69.26-1.4.49-2.08.78-.88.38-1.74.82-2.61,1.23-.28.12-.56.23-.83.36a1.7,1.7,0,0,1-1.49,0c-.29-.13-.59-.23-.88-.33s-.42-.13-.49-.36a1,1,0,0,1,.4-.76c.56-.27,1.13-.53,1.69-.81l1-.47a.51.51,0,0,0,.3-.47,4.23,4.23,0,0,0,0-1.23c0-.25-.14-.5-.18-.75S4.92,11.7,5.08,11.45Z"/><path d="M21.13,11.42c0-.16,0-.26.05-.35.1-1,.2-2,.32-3a36.94,36.94,0,0,0,.26-4.46c0-.63-.05-1.27-.08-1.93l.42-.25a5.13,5.13,0,0,0,.5.27,4.59,4.59,0,0,1,1,.64.25.25,0,0,1,.09.35.43.43,0,0,0,0,.23,19.81,19.81,0,0,1,.19,2.88c0,.27,0,.54,0,.81a1.77,1.77,0,0,1-.07.82.47.47,0,0,0,0,.17,36.47,36.47,0,0,1-.47,4.3c0,.39-.1.78-.16,1.17,0,.19-.1.38-.16.59-.28,0-.52-.09-.76-.15A3.69,3.69,0,0,0,21,13.23a.71.71,0,0,1-.37-.14,5.55,5.55,0,0,1-1.81-1.86c-.42-.66-.82-1.33-1.22-2a7.3,7.3,0,0,0-.38-.65,1.77,1.77,0,0,0,0,.2c0,1,0,1.93.06,2.89a20,20,0,0,1-.14,2.55c-.34-.09-.67-.07-1-.18a2,2,0,0,0-.69-.09c-.37,0-.4,0-.52-.38a1.7,1.7,0,0,1-.07-1,6,6,0,0,0,.07-.73l.21-4a1.6,1.6,0,0,1,0-.23,16.55,16.55,0,0,0,.3-2.63c0-.2.15-.4,0-.62,0,0,.07-.14.13-.17a.59.59,0,0,1,.6-.06c.39.18.77.36,1.17.52a1.35,1.35,0,0,1,.68.63c.19.37.39.75.56,1.14.45,1.06.86,2.14,1.34,3.19a14,14,0,0,0,.94,1.58A3,3,0,0,0,21.13,11.42Z"/><path d="M90.7,3.79a.91.91,0,0,1-.15.23,6.84,6.84,0,0,1-.76.65.82.82,0,0,1-.47.1,1.29,1.29,0,0,1-.5-.17,2,2,0,0,0-1.45-.24l-2.25.41L85,4.8c-.35.06-.48.28-.53.63a9.32,9.32,0,0,0,.2,3.16c.23,1.13.46,2.26.67,3.39a8.81,8.81,0,0,1,.15,1.7,2,2,0,0,1-1.1,1.8.44.44,0,0,1-.32,0c-.3-.06-.6-.15-.91-.21s-.55-.05-.84-.08a1.92,1.92,0,0,1-.06-.89c.07-.46.2-.91.3-1.37a1.45,1.45,0,0,0,0-.36c-.08-.6-.19-1.2-.25-1.8-.16-1.33-.4-2.65-.44-4,0-.34,0-.69,0-1,0-.11,0-.22,0-.39l-.44.12v.21c-.19.1-.39-.15-.56.07L81,6l0,0-1-.4L79,5.13a.33.33,0,0,1-.24-.33c.12-.07.25-.17.4-.24.79-.37,1.56-.77,2.37-1.1.61-.24,1.26-.4,1.88-.6a.77.77,0,0,0,.23-.06,4.82,4.82,0,0,1,2-.47c.73-.1,1.46-.18,2.2-.25a3.21,3.21,0,0,1,.93,0,2.3,2.3,0,0,1,1.11.63c.26.25.53.5.81.74.1.09.14.17,0,.28Z"/><path d="M77.29,2.23c-.14.1-.3.19-.43.3A9.5,9.5,0,0,0,74.43,6a4.53,4.53,0,0,0,.16,3.87,1.8,1.8,0,0,0,.86.82,6,6,0,0,0,2.28.62,2.74,2.74,0,0,0,1-.07.77.77,0,0,1,.69.17c.13.1.27.19.41.28a1.54,1.54,0,0,1,.63.85.31.31,0,0,1,0,.23.51.51,0,0,1-.25.16,5.17,5.17,0,0,1-2.27.37,6.2,6.2,0,0,1-1.74-.5,17.64,17.64,0,0,1-2.06-1,4.9,4.9,0,0,1-2.43-3.07,6,6,0,0,1,0-2.54A8.3,8.3,0,0,1,72.8,3.44a12.82,12.82,0,0,1,.72-1.09A7.46,7.46,0,0,1,75.29.62,2.81,2.81,0,0,1,77.4,0a.85.85,0,0,1,.54.25c.45.48.91,1,1.35,1.44A1.69,1.69,0,0,1,79.58,3a2.13,2.13,0,0,1-1,1.77,1.71,1.71,0,0,0-.25.22.35.35,0,0,1-.57,0,2.45,2.45,0,0,0-.6-.56.74.74,0,0,1-.23-.95L77.12,3c.06-.14.13-.28.18-.43a1.8,1.8,0,0,0,.06-.22Zm1.95.38a.77.77,0,0,0-.95-.79A1.23,1.23,0,0,1,79.24,2.61Z"/><path d="M29.52,4.36c-.66.19-1.32.39-2,.57a9.35,9.35,0,0,1-.92.18.63.63,0,0,1-.5-.14,8.55,8.55,0,0,0-1.45-1c-.19-.09-.2-.22,0-.37a.67.67,0,0,1,.31-.17c.52-.16,1.05-.28,1.58-.44s.89-.31,1.34-.44c1-.29,2-.58,3.06-.85.66-.18,1.32-.33,2-.47.33-.07.66-.12,1-.16a.67.67,0,0,1,.67.33c.34.46.62,1,.92,1.43a.65.65,0,0,1,0,.67c-.07.17-.18.33-.26.5a.28.28,0,0,1-.33.17,1,1,0,0,1-.63-.27,1.36,1.36,0,0,0-.24-.24.82.82,0,0,0-.8-.21c-.22.07-.44.1-.65.17s-.25.14-.38.2l-.5.2c-.42.14-.45.16-.42.62.07,1,.16,2.1.22,3.15a16.83,16.83,0,0,1-.09,3.82,15.06,15.06,0,0,1-.67,2.56c0,.07-.05.18,0,.22a.23.23,0,0,1,0,.33,1.94,1.94,0,0,1-.34.36s-.16,0-.22,0l-.69-.35c-.23-.12-.43-.3-.74-.23s-.35-.08-.31-.31c.08-.53.19-1.05.3-1.58l.42-1.89a14.4,14.4,0,0,0,.2-2.27c.07-1.23,0-2.46,0-3.69A1.12,1.12,0,0,1,29.52,4.36ZM33.7,1.6l.45-.35A.38.38,0,0,0,33.7,1.6Z"/><path d="M90.7,3.79v0l.37-.32a.35.35,0,0,1,.44,0,5,5,0,0,1,.62.39c.36.28.69.58,1,.86a.36.36,0,0,1,.15.38c-.09.44-.16.88-.25,1.32a22.51,22.51,0,0,0-.42,3.06c-.06.81-.16,1.62-.24,2.44,0,.31-.05.62-.07.93,0,.75-.09,1.5-.15,2.25A7,7,0,0,1,92,16.11a1.17,1.17,0,0,1-.79.71.58.58,0,0,1-.54,0,7.67,7.67,0,0,0-.9-.36.44.44,0,0,0-.16,0,.85.85,0,0,1-.55-.09c0-.27,0-.54.11-.81a25.1,25.1,0,0,0,.47-3.66c.06-.91.16-1.81.25-2.71,0-.22-.07-.45.11-.64A4,4,0,0,1,90.07,7c.08-.51.18-1,.28-1.55l.3-1.51A.69.69,0,0,1,90.7,3.79Z"/><path d="M51.85,1.94,51.61,2V2l.26,0Z"/></svg>