<?xml version="1.0" encoding="UTF-8"?><svg id="a" xmlns="http://www.w3.org/2000/svg" viewBox="0 0 189.28 46.99"><path d="M177.86,32.94c-.74-.18-1.36-.3-1.97-.49-3.68-1.11-5.38-3.84-4.6-7.6,.54-2.63,1.52-5.13,3.09-7.33,.54-.75,1.26-1.48,2.06-1.92,2.73-1.49,5.52-2.85,8.29-4.25,1.07,1.55,1.15,3.19,.99,4.95-.43,4.71-.83,9.42-1.83,14.05-.81,3.78-2.11,7.36-4.8,10.26-.81,.87-1.72,1.69-2.71,2.35-1.24,.84-2.62,.6-3.68-.46-1.57-1.56-2.21-3.61-2.89-5.63-.08-.23,.35-.68,.62-.96,.33-.33,.81-.66,1.24-.29,.55,.48,1.08,1.05,1.44,1.69,.43,.74,.94,1.29,1.74,1.59,.71,.27,1.25,.09,1.65-.53,.16-.24,.31-.51,.37-.79,.34-1.53,.65-3.06,.98-4.64Zm1.5-16.06c-.53,.14-1.11,.11-1.35,.38-1.79,2.05-2.93,4.42-3.37,7.13-.32,1.98-.03,3.65,1.85,4.75,.35,.2,.61,.63,1.09,.32,.5-.32,1.11-.52,1.15-1.29,.08-1.56,.23-3.12,.32-4.68,.12-2.12,.21-4.24,.32-6.6Z"/><path d="M119.42,20.77c.51-1.21,.68-2.37-.1-3.47-.79-1.1-1.91-1.67-3.26-1.69-.7-.01-1.19,.46-1.48,1.06-.35,.7-.6,1.45-.95,2.15-.09,.18-.45,.39-.63,.35-.94-.22-1.95-.36-2.78-.81-1.74-.94-2.05-2.91-.67-4.34,1.99-2.07,4.45-3,7.29-2.15,2.82,.85,4.89,2.63,5.24,5.71,.18,1.56-.11,3.17-.21,4.75-.06,1-.21,2-.26,3-.07,1.47,.3,2.73,1.67,3.59,1.1,.69,1.28,1.72,.67,2.88-1,1.9-2.41,2.35-4.33,1.34-.94-.49-1.89-.66-2.97-.45-1.07,.21-2.2,.33-3.29,.23-3.75-.34-6.18-4.54-4.76-8.13,1.83-4.64,6.7-6.12,10.82-4.01Zm-5.55,8.75c1.6,0,3.52-.73,4.52-1.69,1.09-1.04,1.13-2.25,.03-3.24-.48-.43-1.05-.83-1.65-1.05-.46-.17-1.07-.16-1.54,0-1.19,.4-1.67,1.24-1.6,2.57,.06,1.12,.16,2.24,.24,3.41Z"/><path d="M147.79,2.78c.52,.71,1.08,1.41,1.57,2.18,.2,.31,.24,.73,.32,1.1,.4,1.87,.04,3.74-.1,5.6-.39,5.47-.77,10.94-.55,16.43,.03,.73-.17,1.51-.4,2.22-.42,1.25-1.35,2.01-2.66,2.27-.24,.05-.48,.12-.72,.16-4.08,.66-5.98-.87-6.58-5.24-.54-3.88,.49-7.37,2.52-10.63,.49-.79,1-1.58,1.59-2.29,1.6-1.92,2.28-4.13,2.29-6.59,0-.15,.01-.29,0-.44-.09-2.1,.75-3.7,2.72-4.76Zm-4.17,26.68c.68-1.08,1.31-2.15,1.17-3.53-.09-.85,.02-1.71,0-2.56-.04-2.04-.11-4.08-.18-6.3-1.56,2.2-2.55,4.43-2.74,6.95-.15,2.02-.05,3.98,1.75,5.45Z"/><path d="M98.2,11.92l5.68,.76c-.67,2.16-1.31,4.24-1.98,6.41l-4.03-1.41,.75,10.45,.7,.13c.21-1.02,.4-1.97,.61-2.92,.11-.53,.22-1.06,.38-1.57,.86-2.67,1.53-2.58,3.89-1.56,.17,.07,.35,.37,.34,.55-.17,2.12-.37,4.24-1.09,6.28-.35,1-1,1.66-1.98,2.03-.5,.19-1.01,.37-1.53,.52-3.01,.87-4.59-.32-4.92-3.52-.31-2.97-.47-5.96-.68-8.94-.03-.48-.19-.8-.6-1.08-.95-.64-1.87-1.33-2.89-2.06,1.16-.88,2.26-1.72,3.38-2.53,.4-.29,.56-.54,.43-1.08-.37-1.45-.6-2.93-.96-4.38-.16-.63-.46-1.23-.74-1.83-.44-.96-.24-1.47,.74-1.82,.23-.08,.47-.14,.71-.2,2.06-.47,3.59,.6,3.74,2.71,.07,.99-.08,2-.08,3.01,0,.66,.09,1.31,.14,2.04Z"/><path d="M46.48,28.59c-2.27,.16-4.47,.52-6.66,.44-3.59-.14-5.73-3.02-5-6.53,.49-2.37,1.16-4.7,2.3-6.87,1-1.89,2.38-3.44,4.32-4.36,.97-.46,1.34-1.17,1.41-2.12,.18-2.44,.34-4.88,.49-7.33,.06-1.03,.08-1.07,1.12-.94,1.31,.16,2.02,.96,2.08,2.49,.06,1.59,.02,3.18,.01,4.77-.02,6.32-.04,12.63-.06,18.95,0,.49-.02,.98-.02,1.49Zm-4.23-2.5c.1-3.76,.21-7.35,.3-10.94,.03-1.08,.01-1.08-1.16-1.24-.96,2.37-1.96,4.76-2.87,7.18-.3,.79-.46,1.65-.52,2.5-.09,1.13,.39,1.77,1.48,2.04,.87,.22,1.77,.3,2.77,.46Z"/><path d="M14.57,11.06c.77,.53,1.55,.97,2.2,1.55,.36,.32,.7,.87,.73,1.34,.26,4.32,.46,8.65,.66,12.97,.02,.35-.08,.75-.27,1.04-.52,.82-1.11,1.6-1.73,2.47l-2.18-3.36c-1.81,.58-3.49,1.14-5.18,1.66-.8,.25-1.37-.2-1.85-.77-2.14-2.55-3.26-5.43-2.87-8.81,.13-1.09,.24-2.18,.36-3.34-1.21-.25-2.78,.29-3.1-1.69,1.51-.6,3.06-1.23,4.64-1.81,.16-.06,.53,.16,.67,.35,.83,1.13,.97,2.42,.81,3.78-.15,1.21-.25,2.43-.35,3.65-.14,1.7,.29,3.25,1.21,4.68,.56,.87,1.28,1.41,2.38,1.25,1.06-.16,1.81-.8,2.03-1.78,.23-1.03,.25-2.13,.25-3.19,0-2.08-.02-4.16-.12-6.24-.08-1.57,.84-2.6,1.72-3.75Z"/><path d="M135.07,32.36c-1.39-.22-1.77-1.1-1.85-2.29-.17-2.44-.43-4.87-.63-7.31-.2-2.36-1.34-4.23-3.31-5.37-.66,1.7-1.1,3.42-1.01,5.26,.07,1.47,.02,2.94,.1,4.41,.12,2.06-.68,3.82-1.66,5.62l-1.26-.29c0-2.23-.03-4.43,0-6.63,.03-3.18,.1-6.37,.17-9.55,0-.46,.07-.93,.18-1.38,.19-.84,.7-1.19,1.45-.82,.92,.45,1.66,.23,2.5-.15,1.09-.49,2.26-.69,3.45-.5,1.97,.31,3.21,1.87,3.44,4.19,.3,2.99,.09,5.97-.15,8.95-.06,.73-.19,1.46-.18,2.2,.02,1.39-.58,2.55-1.21,3.67Z"/><path d="M157.59,32.22c.14-2.37,.22-4.69,.43-7,.29-3.29,.66-6.58,1.02-9.86,.06-.53,.18-1.07,.36-1.57,.38-1.02,1.08-1.24,2.04-.7,.21,.12,.39,.31,.61,.4,.48,.2,.97,.4,1.48,.51,.6,.13,1.22,.1,1.82,.24,2.35,.54,3.88,2.19,3.92,4.6,.05,2.96-.15,5.92-.24,8.88-.02,.51-.09,1.02-.12,1.54-.14,2.11-1.41,3.08-3.64,2.69,.16-1.49,.39-2.99,.47-4.49,.07-1.46,.11-2.94-.08-4.38-.3-2.26-1.65-3.92-3.55-5.36-.11,1.03-.21,1.95-.31,2.88-.29,2.92-.56,5.85-.86,8.77-.2,1.94-1.28,2.9-3.34,2.84Z"/><path d="M61.26,21.29c-1.82-.12-3.43-.23-5.04-.33-1.27-.08-2.55-.15-3.82-.26-.45-.04-.61,.13-.69,.53-.46,2.13,1.39,5.05,3.52,5.55,.64,.15,1.17,.02,1.68-.44,.72-.66,1.52-1.23,2.3-1.82,.55-.42,1.13-.39,1.7-.01,.8,.53,1.6,1.16,1.59,2.16-.02,1.14-.69,2.12-1.74,2.54-1.12,.45-2.35,.81-3.53,.83-1.5,.02-3.05-.17-4.48-.59-3.33-.97-4.93-3.5-4.5-6.94,.33-2.7,1.31-5.17,2.98-7.33,1.68-2.17,3.96-2.96,6.21-2.16,2.22,.78,3.34,2.53,3.72,4.72,.2,1.13,.08,2.31,.11,3.56Zm-3.14-2.37c.13-.14,.39-.36,.56-.64,.08-.13,.04-.42-.06-.57-.42-.69-.88-1.35-1.33-2.03-.29-.44-.65-.57-1.12-.28-1.01,.64-2.04,1.26-3.03,1.93-.18,.12-.35,.44-.33,.66,.03,.36,.18,.68,.68,.7,1.47,.05,2.94,.14,4.62,.23Z"/><path d="M29.98,28.5c-.17-2.34-.43-4.63-.47-6.92-.03-1.88-.59-3.45-1.97-4.72-.63-.58-1.26-1.16-1.86-1.77-.55-.56-1,0-1.45,.13-.16,.05-.3,.49-.29,.75,.17,2.93,.43,5.86,.55,8.8,.03,.76-.27,1.57-.53,2.31-.2,.57-.58,1.07-.87,1.6-.75,0-.99-.37-1.03-1.09-.2-3.74-.47-7.48-.67-11.23-.06-1.12-.05-2.25,0-3.38,.07-1.2,.69-1.68,1.83-1.28,.91,.31,1.73,.19,2.63,.1,1.04-.11,2.11-.11,3.14,0,1.31,.14,2.33,.91,2.79,2.13,.48,1.3,.9,2.66,1.04,4.03,.26,2.38,.33,4.79,.4,7.19,.06,2.04-1.03,3.17-3.24,3.37Z"/><path d="M88.79,17.74c-.98-.41-1.83-.8-2.7-1.11-1.87-.66-2.85-.3-3.89,1.4-.31,.5-.56,1.03-.88,1.62,.24,.07,.41,.15,.59,.17,2.35,.31,4.25,1.58,6.11,2.9,1.35,.96,2.1,2.37,2.41,3.99,.3,1.63-.68,3.26-2.54,3.79-1.35,.38-2.79,.56-4.2,.57-1.71,0-3.42-.24-5.12-.44-1.19-.14-1.48-1.17-1.81-2.08-.24-.65,.17-1.82,.78-2.15,.27-.14,.76-.15,1.02,.01,2.12,1.34,4.56,1.38,6.92,1.77,.63,.1,1.07-.07,1.41-.65,.31-.53,.45-.99,.02-1.54-.36-.46-.64-.99-.97-1.47-.92-1.36-2.13-2.24-3.77-2.58-.82-.17-1.67-.48-2.37-.92-1.63-1.04-1.77-2.64-.44-4.02,1.77-1.83,3.68-3.46,6.2-4.19,.28-.08,.57-.13,.86-.17,2.18-.3,3.23,.72,2.94,2.9-.1,.72-.35,1.42-.55,2.21Z"/><path d="M63.95,30.28c.04-1.41,.06-2.75,.11-4.09,.14-3.89,.29-7.78,.44-11.67,.01-.28,.06-.59,.19-.84,.42-.81,.76-.98,1.48-.44,1.47,1.1,2.88,1.43,4.68,.61,1.41-.64,2.98-.36,4.36,.49,.76,.46,1.24,1.08,1.41,1.96,.21,1.05,.43,2.1,.68,3.29-.34-.13-.58-.22-.81-.3-1.68-.6-3.35-1.24-5.04-1.8-1.11-.37-1.29-.26-2,.63-1.57,1.99-2.09,4.28-1.87,6.76,.15,1.66,.3,3.32,.45,4.97,.02,.26,.04,.52,.06,.88l-4.14-.46Z"/><path d="M155.44,13.93c.59,1.28,.76,2.49,.49,3.8-.49,2.32-.94,4.66-1.28,7.01-.13,.89,.06,1.83,.17,2.74,.11,.85,.32,1.68,.46,2.52,.09,.56-.13,1.02-.66,1.27-.77,.37-1.55,.72-2.34,1.04-.15,.06-.5-.03-.55-.14-.26-.64-.69-1.32-.64-1.95,.26-3.29,.69-6.57,.96-9.87,.1-1.18,.02-2.42-.2-3.58-.23-1.18,.33-1.68,1.24-2.1,.72-.34,1.53-.49,2.35-.74Z"/><path d="M155.17,9.05c-1.39-.47-2.06-1.7-1.57-3.12,.26-.75,.79-1.44,1.33-2.05,.48-.54,1.01,0,1.43,.24,.16,.09,.23,.55,.16,.78-.42,1.38-.88,2.73-1.35,4.14Z"/></svg>